<?xml version="1.0" encoding="UTF-8"?><svg id="Layer_3" xmlns="http://www.w3.org/2000/svg" viewBox="0 0 201.94 105.89"><defs><style>.cls-1{fill:#6c6b6b;}.cls-2{fill:#34b3a9;}</style></defs><path class="cls-1" d="M94.68,18.39l-27.63,21.65c-1.69,1.69-2.64,3.98-2.64,6.37v49.44c0,4.98,4.04,9.02,9.02,9.02h55.26c4.98,0,9.02-4.04,9.02-9.02V46.41c0-2.39-.95-4.68-2.64-6.37l-27.63-21.65c-3.52-3.52-9.23-3.52-12.75,0Z"/><g><path class="cls-2" d="M184.07,25.19h-7.42l-.46-1.3,5.17-5.17c1.04-1.05,1.04-2.76,0-3.82l-9.57-9.52c-1.05-1.04-2.76-1.04-3.82,0l-5.17,5.17-1.35-.47V2.72c0-1.5-1.22-2.71-2.71-2.71h-14.08c-.17-.01-.33-.01-.5,0h-.1c-1.3,.26-2.22,1.4-2.2,2.71v7.36l-1.35,.47-5.17-5.17c-1.05-1.04-2.76-1.04-3.82,0l-9.52,9.52c-1.04,1.05-1.04,2.76,0,3.81l5.13,5.18-.43,1.3h-7.46c-1.5,0-2.71,1.22-2.71,2.71v14.11c0,1.49,1.22,2.71,2.71,2.71h7.45l.44,1.35-5.11,5.12c-.52,.51-.83,1.22-.83,1.95s.3,1.44,.82,1.94l9.52,9.46c1.05,1.04,2.76,1.04,3.81,0l5.18-5.13,1.35,.44v7.4c0,1.5,1.22,2.71,2.71,2.71h14.17c1.5,0,2.71-1.22,2.71-2.71v-7.4l1.35-.44,5.18,5.13c1.05,1.04,2.76,1.04,3.81,0l9.56-9.46c.52-.51,.83-1.22,.83-1.95s-.3-1.44-.82-1.94l-5.17-5.12,.47-1.35h7.41c1.5,0,2.71-1.22,2.71-2.71v-14.11c0-1.5-1.22-2.71-2.71-2.71Zm-38.65,30.15l-4.84-1.61c-.96-.3-2-.03-2.71,.68l-4.42,4.42-5.7-5.7,4.37-4.41c.74-.72,1-1.82,.68-2.8l-1.6-4.75c-.36-1.1-1.38-1.85-2.55-1.86h-6.7v-8.69h6.71c1.16-.01,2.18-.76,2.54-1.86l1.6-4.76c.33-.98,.06-2.07-.67-2.79l-4.37-4.37,5.7-5.7,4.42,4.42c.71,.71,1.75,.97,2.74,.67l4.81-1.6c1.1-.36,1.85-1.38,1.86-2.55V5.43h8.74v6.66c.02,1.16,.76,2.18,1.86,2.54l4.83,1.61c.96,.29,2,.03,2.71-.67l4.48-4.43,5.7,5.7-4.41,4.37c-.74,.72-1,1.82-.68,2.8l1.6,4.75c.36,1.1,1.38,1.85,2.55,1.86h6.7v8.69h-6.71c-1.16,.02-2.18,.76-2.54,1.86l-1.61,4.76c-.32,.98-.06,2.08,.67,2.79l4.42,4.42-5.74,5.7-4.43-4.43c-.71-.71-1.75-.97-2.74-.67l-4.81,1.6c-1.1,.36-1.85,1.38-1.86,2.55v6.64h-8.74v-6.66c-.02-1.16-.76-2.18-1.86-2.54Z"/><path class="cls-2" d="M165.56,34.95c0-7.63-6.23-13.83-13.88-13.83s-13.94,6.2-13.94,13.83,6.25,13.88,13.94,13.88,13.88-6.23,13.88-13.88Zm-5.42,0c0,4.67-3.8,8.46-8.46,8.46s-8.52-3.8-8.52-8.46,3.82-8.41,8.52-8.41,8.46,3.77,8.46,8.41Z"/></g></svg>