<?xml version="1.0" encoding="UTF-8"?><svg id="Layer_1" xmlns="http://www.w3.org/2000/svg" viewBox="0 0 21.77 26.47"><defs><style>.cls-1{fill:#f9f9f9;}.cls-2{fill:#00C0B0;}</style></defs><path class="cls-2" d="M8.99,.78L.78,7.21C.28,7.72,0,8.4,0,9.11v14.68c0,1.48,1.2,2.68,2.68,2.68H19.09c1.48,0,2.68-1.2,2.68-2.68V9.11c0-.71-.28-1.39-.78-1.89L12.78,.78c-1.05-1.05-2.74-1.05-3.79,0Z"/><path class="cls-1" d="M12.19,16.01l4.93-4.93c.36-.36,.36-.95,0-1.31-.36-.36-.95-.36-1.31,0l-4.93,4.93-4.93-4.93c-.36-.36-.95-.36-1.31,0-.36,.36-.36,.95,0,1.31l4.93,4.93-4.93,4.93c-.36,.36-.36,.95,0,1.31,.18,.18,.42,.27,.65,.27s.47-.09,.65-.27l4.93-4.93,4.93,4.93c.18,.18,.42,.27,.65,.27s.47-.09,.65-.27c.36-.36,.36-.95,0-1.31l-4.93-4.93Z"/></svg>