<svg id="Layer_1" data-name="Layer 1" xmlns="http://www.w3.org/2000/svg" viewBox="0 0 15 15"><defs><style>.cls-1{fill:#fff;}</style></defs><title>icon-social-instagram</title><path class="cls-1" d="M7.5,1.35c2,0,2.24,0,3,0a4.15,4.15,0,0,1,1.39.25,2.44,2.44,0,0,1,1.43,1.43,4.15,4.15,0,0,1,.25,1.39c0,.79.05,1,.05,3s0,2.24-.05,3a4.15,4.15,0,0,1-.25,1.39,2.44,2.44,0,0,1-1.43,1.43,4.15,4.15,0,0,1-1.39.25c-.79,0-1,.05-3,.05s-2.24,0-3-.05a4.15,4.15,0,0,1-1.39-.25,2.44,2.44,0,0,1-1.43-1.43,4.15,4.15,0,0,1-.25-1.39c0-.79,0-1,0-3s0-2.24,0-3a4.15,4.15,0,0,1,.25-1.39A2.44,2.44,0,0,1,3.08,1.65,4.15,4.15,0,0,1,4.47,1.4c.79,0,1,0,3,0M7.5,0c-2,0-2.29,0-3.09.05A5.45,5.45,0,0,0,2.59.39a3.73,3.73,0,0,0-1.33.87A3.73,3.73,0,0,0,.39,2.59,5.45,5.45,0,0,0,.05,4.41c0,.8,0,1,0,3.09s0,2.29.05,3.09a5.45,5.45,0,0,0,.34,1.82,3.73,3.73,0,0,0,.87,1.33,3.73,3.73,0,0,0,1.33.87A5.45,5.45,0,0,0,4.41,15c.8,0,1,.05,3.09.05s2.29,0,3.09-.05a5.45,5.45,0,0,0,1.82-.34,3.88,3.88,0,0,0,2.2-2.2A5.45,5.45,0,0,0,15,10.59c0-.8.05-1.05.05-3.09S15,5.21,15,4.41a5.45,5.45,0,0,0-.34-1.82,3.73,3.73,0,0,0-.87-1.33A3.73,3.73,0,0,0,12.41.39,5.45,5.45,0,0,0,10.59.05C9.79,0,9.54,0,7.5,0Z"/><path class="cls-1" d="M7.5,3.65A3.85,3.85,0,1,0,11.35,7.5,3.85,3.85,0,0,0,7.5,3.65ZM7.5,10A2.5,2.5,0,1,1,10,7.5,2.5,2.5,0,0,1,7.5,10Z"/><circle class="cls-1" cx="11.5" cy="3.5" r="0.9"/></svg>