<?xml version="1.0" encoding="UTF-8"?><svg id="Layer_1" xmlns="http://www.w3.org/2000/svg" viewBox="0 0 174.13 178.88"><defs><style>.cls-1{fill:#00C0B0;}.cls-2{fill:none;stroke:#6c6b6b;stroke-miterlimit:10;stroke-width:5.46px;}</style></defs><g><path class="cls-1" d="M39.7,131.93c0,.63,.22,1.24,.62,1.73l2.67,3.27-1.47,5.11c-.07,.24-.11,.5-.11,.76v11.66c0,.56,.17,1.11,.5,1.57l4.22,6.01c.05,.07,.11,.12,.16,.19,.05,.06,.1,.13,.15,.19l.02,.02c.08,.07,.16,.14,.25,.2,.06,.05,.12,.1,.18,.14,.08,.05,.16,.08,.24,.12,.08,.04,.16,.09,.24,.12,.07,.03,.14,.04,.21,.06,.1,.03,.19,.06,.29,.08,.08,.01,.15,.01,.23,.02,.1,0,.19,.02,.29,.02,.08,0,.16-.02,.25-.03,.09,0,.18-.01,.28-.03,.07-.02,.15-.04,.22-.07,.1-.03,.2-.05,.29-.09,.06-.03,.12-.06,.18-.1,.1-.05,.2-.1,.3-.17,0,0,.02,0,.02-.01,.07-.05,.12-.11,.19-.16,.06-.05,.13-.1,.19-.16l.04-.04h0l5.88-5.96c.5-.51,.79-1.2,.79-1.92v-28.98c5.79-3.16,9.46-9.24,9.46-15.96,0-10.02-8.13-18.18-18.11-18.18-4.84,0-9.39,1.89-12.81,5.33-3.42,3.43-5.3,8-5.3,12.85h0c0,6.73,3.66,12.8,9.45,15.96v6.46Zm-3.98-22.41h0c0-3.4,1.32-6.59,3.71-9,2.39-2.4,5.56-3.72,8.94-3.72,6.97,0,12.65,5.71,12.65,12.72,0,5.08-2.99,9.64-7.62,11.66-1.07,.37-1.84,1.38-1.84,2.57v29.59l-2.83,2.87-1.84-2.62v-10.41l1.77-6.11c.25-.86,.06-1.79-.51-2.49l-2.96-3.63v-7.16c0-.19-.02-.38-.06-.56v-.03c-.04-.16-.09-.32-.16-.48-.02-.05-.05-.09-.07-.13-.06-.11-.11-.23-.18-.33-.03-.04-.06-.07-.09-.11-.08-.1-.15-.2-.24-.3-.04-.04-.09-.07-.13-.11-.09-.08-.17-.16-.27-.22-.15-.1-.31-.19-.47-.26-4.73-1.99-7.78-6.59-7.78-11.74h0Z"/><path class="cls-1" d="M48.35,107.83c-1.64,0-2.97-1.33-2.97-2.98,0-1.65,1.33-2.98,2.97-2.98s2.97,1.33,2.97,2.98-1.33,2.98-2.97,2.98"/></g><g><path class="cls-2" d="M137.36,42.48l-21.86,17.13c-1.34,1.34-2.09,3.15-2.09,5.04v39.12c0,3.94,3.19,7.13,7.13,7.13h43.72c3.94,0,7.13-3.19,7.13-7.13v-39.12c0-1.89-.75-3.71-2.09-5.04l-21.86-17.13c-2.79-2.79-7.3-2.79-10.09,0Z"/><path class="cls-2" d="M77.11,4.06l-13.9,10.89c-.85,.85-1.33,2-1.33,3.21v24.88c0,2.51,2.03,4.54,4.54,4.54h27.81c2.51,0,4.54-2.03,4.54-4.54V18.16c0-1.2-.48-2.36-1.33-3.21l-13.9-10.89c-1.77-1.77-4.64-1.77-6.42,0Z"/></g><path class="cls-2" d="M40.42,68.49L6.02,95.44c-2.1,2.1-3.29,4.96-3.29,7.94v61.55c0,6.2,5.03,11.22,11.22,11.22H82.75c6.2,0,11.22-5.03,11.22-11.22v-61.55c0-2.98-1.18-5.83-3.29-7.94l-34.4-26.95c-4.38-4.38-11.49-4.38-15.87,0Z"/></svg>