<?xml version="1.0" encoding="UTF-8"?><svg id="Layer_4" xmlns="http://www.w3.org/2000/svg" viewBox="0 0 201.94 105.89"><defs><style>.cls-1{fill:#6c6b6b;}.cls-2{fill:#34b3a9;fill-rule:evenodd;}</style></defs><path class="cls-1" d="M93.66,19.41l-27.63,21.65c-1.69,1.69-2.64,3.98-2.64,6.37v49.44c0,4.98,4.04,9.02,9.02,9.02h55.26c4.98,0,9.02-4.04,9.02-9.02V47.43c0-2.39-.95-4.68-2.64-6.37l-27.63-21.65c-3.52-3.52-9.23-3.52-12.75,0Z"/><path class="cls-2" d="M144.55,62.38v6.27h-9.58c-1.64,0-2.97,1.33-2.97,2.97s1.33,2.97,2.97,2.97h38.57c1.64,0,2.97-1.33,2.97-2.97s-1.33-2.97-2.97-2.97h-9.58v-6.27h22.93c4.92,0,8.9-3.99,8.9-8.9V17.88c0-4.92-3.99-8.9-8.9-8.9H121.62c-4.92,0-8.9,3.99-8.9,8.9V53.48c0,4.92,3.99,8.9,8.9,8.9h22.93Zm5.93,6.27h7.54v-6.27h-7.54v6.27Zm39.38-50.78V53.48c0,1.64-1.33,2.97-2.97,2.97H121.62c-1.64,0-2.97-1.33-2.97-2.97V17.88c0-1.64,1.33-2.97,2.97-2.97h65.28c1.64,0,2.97,1.33,2.97,2.97Z"/></svg>