<?xml version="1.0" encoding="UTF-8"?><svg id="Layer_2" xmlns="http://www.w3.org/2000/svg" viewBox="0 0 201.94 105.89"><defs><style>.cls-1{fill:#6c6b6b;}.cls-2{fill:#34b3a9;}</style></defs><path class="cls-1" d="M94.41,19.29l-27.63,21.65c-1.69,1.69-2.64,3.98-2.64,6.37v49.44c0,4.98,4.04,9.02,9.02,9.02h55.26c4.98,0,9.02-4.04,9.02-9.02V47.31c0-2.39-.95-4.68-2.64-6.37l-27.63-21.65c-3.52-3.52-9.23-3.52-12.75,0Z"/><g><path class="cls-2" d="M148.28,1.1c-19.18,0-34.78,15.6-34.78,34.77s15.6,34.77,34.78,34.77,34.77-15.6,34.77-34.77S167.45,1.1,148.28,1.1Zm28.93,34.77c0,15.95-12.98,28.93-28.93,28.93s-28.93-12.98-28.93-28.93,12.98-28.93,28.93-28.93,28.93,12.98,28.93,28.93Z"/><path class="cls-2" d="M148.28,17.64c-1.61,0-2.92,1.31-2.92,2.92v1.06c0,1.61,1.31,2.92,2.92,2.92s2.92-1.31,2.92-2.92v-1.06c0-1.61-1.31-2.92-2.92-2.92Z"/><path class="cls-2" d="M148.28,27.03c-1.61,0-2.92,1.31-2.92,2.92v21.24c0,1.61,1.31,2.92,2.92,2.92s2.92-1.31,2.92-2.92V29.95c0-1.61-1.31-2.92-2.92-2.92Z"/></g></svg>