<?xml version="1.0" encoding="UTF-8"?>
<svg id="Layer_1" data-name="Layer 1" xmlns="http://www.w3.org/2000/svg" viewBox="0 0 23.44 23.44">
  <defs>
    <style>
      .cls-1 {
        fill: #f5f6f6;
      }
    </style>
  </defs>
  <path class="cls-1" d="m23.06,18.12c-1.59-1.38-3.44-2.35-5.53-2.97-.42-.12-.87-.04-1.2.24-.79.66-1.56,1.42-2.29,2.37-.19.25-.54.32-.81.17-3.3-1.85-5.87-4.42-7.71-7.71-.15-.27-.08-.62.17-.81.94-.73,1.7-1.5,2.37-2.29.28-.33.36-.78.24-1.2-.62-2.08-1.59-3.94-2.97-5.53-.28-.32-.7-.45-1.11-.34C1.7.69.23,3.23.07,5.98c-1.07,6.65,10.74,18.46,17.39,17.39,2.75-.16,5.3-1.63,5.94-4.14.11-.41-.03-.84-.34-1.11h0Z"/>
</svg>