<?xml version="1.0" encoding="utf-8"?>
<!-- Generator: Adobe Illustrator 27.8.1, SVG Export Plug-In . SVG Version: 6.00 Build 0)  -->
<svg version="1.1" id="Layer_1" xmlns="http://www.w3.org/2000/svg" xmlns:xlink="http://www.w3.org/1999/xlink" x="0px" y="0px"
	 viewBox="0 0 492.6 494.6" style="enable-background:new 0 0 492.6 494.6;" xml:space="preserve">
<style type="text/css">
	.st0{fill:#01C0B0;}
</style>
<g>
	<path class="st0" d="M441.2,494.6L318.5,371.9c-7-7-7-18.4,0-25.5c0.1-0.1,0.2-0.2,0.3-0.3l-41.3-41.3
		C247.3,328.9,210.1,342,171,342c-45.1,0-87.6-17.4-119.8-49C18.6,261,0.4,218.3,0,172.6c-0.4-45.7,17-88.8,49-121.4
		c66-67.3,174.5-68.3,241.8-2.2c32.6,32,50.8,74.8,51.2,120.5c0.4,40.6-13.3,79.2-38.9,110.2l41.1,41.1c0.1-0.1,0.2-0.2,0.3-0.3
		c7-7,18.4-7,25.5,0l122.7,122.7L441.2,494.6z M171,36.1c-35,0-70,13.5-96.4,40.4c-25.3,25.7-39,59.8-38.7,95.8
		c0.3,36.1,14.7,69.8,40.4,95.1c25.4,24.9,59,38.7,94.6,38.7s69.2-13.7,94.6-38.7l1.2-1.2c0.2-0.2,0.4-0.4,0.5-0.6
		c25.3-25.7,39-59.8,38.7-95.8s-14.7-69.8-40.4-95.1C239.3,48.9,205.2,36.1,171,36.1z"/>
</g>
</svg>
