<?xml version="1.0" encoding="utf-8"?>
<!-- Generator: Adobe Illustrator 26.3.1, SVG Export Plug-In . SVG Version: 6.00 Build 0)  -->
<svg version="1.1" id="Layer_1" xmlns="http://www.w3.org/2000/svg" xmlns:xlink="http://www.w3.org/1999/xlink" x="0px" y="0px"
	 viewBox="0 0 122.1 125" style="enable-background:new 0 0 122.1 125;" xml:space="preserve">
<style type="text/css">
	.st0{fill:none;stroke:#6C6B6B;stroke-width:3.81;stroke-miterlimit:10;}
	.st1{fill:#6C6B6B;}
	.st2{fill:none;stroke:#00C0B0;stroke-width:4;stroke-linecap:round;stroke-linejoin:round;}
	.st3{fill:none;stroke:#00C0B0;stroke-width:4;stroke-linecap:round;stroke-linejoin:round;stroke-dasharray:0,0,0.11,10.53;}
	
		.st4{fill:none;stroke:#00C0B0;stroke-width:4;stroke-linecap:round;stroke-linejoin:round;stroke-dasharray:0,0,9.000000e-02,9.43;}
	.st5{fill:#00C0B0;}
</style>
<path class="st0" d="M96.4,29.7l-15.3,12c-0.9,0.9-1.5,2.2-1.5,3.5v27.3c0,2.8,2.2,5,5,5h30.5c2.8,0,5-2.2,5-5V45.2
	c0-1.3-0.5-2.6-1.5-3.5l-15.3-12C101.5,27.7,98.4,27.7,96.4,29.7L96.4,29.7z"/>
<path class="st0" d="M54.3,2.8l-9.7,7.6c-0.6,0.6-0.9,1.4-0.9,2.2v17.4c0,1.8,1.4,3.2,3.2,3.2h19.4c1.8,0,3.2-1.4,3.2-3.2V12.7
	c0-0.8-0.3-1.6-0.9-2.2l-9.7-7.6C57.6,1.6,55.6,1.6,54.3,2.8z"/>
<g>
	<path class="st1" d="M57.9,125c5.4,0,9.8-4.4,9.8-9.8v-14.4c-1.2-0.4-2.5-0.6-3.8-0.7v15.1c0,3.3-2.7,5.9-6,5.9H33.8
		c0.5,1.4,1.3,2.7,2.2,3.8C36,125,57.9,125,57.9,125z"/>
	<path class="st1" d="M38.2,124.6c-0.4-1.1-0.7-2.2-1-3.4H9.8c-3.3,0-5.9-2.7-5.9-5.9V72.2c0-1.6,0.6-3,1.7-4.1l24-18.8l0.2-0.2
		c2.3-2.3,6.1-2.3,8.4,0L62.2,68c1.1,1.1,1.7,2.6,1.7,4.1v31.3c1.3,0,2.6,0.2,3.8,0.4V72.2c0-2.6-1-5.1-2.9-6.9L40.6,46.3
		c-3.8-3.7-9.9-3.7-13.6,0L3,65.1l-0.2,0.2C1,67.1,0,69.5,0,72.2v43.1c0,5.4,4.4,9.8,9.8,9.8h28.6C38.3,124.8,38.2,124.7,38.2,124.6
		L38.2,124.6z"/>
</g>
<g>
	<line class="st2" x1="34.3" y1="90.8" x2="34.3" y2="90.8"/>
	<line class="st3" x1="43.6" y1="85.8" x2="95.3" y2="58.2"/>
	<polyline class="st2" points="99.9,55.7 100,55.7 99.9,55.7 	"/>
	<line class="st4" x1="92.7" y1="49.7" x2="59.6" y2="22.3"/>
	<line class="st2" x1="56" y1="19.3" x2="55.9" y2="19.3"/>
</g>
<circle class="st5" cx="56.6" cy="19.3" r="5.5"/>
<circle class="st5" cx="100" cy="55" r="5.5"/>
<circle class="st5" cx="33.8" cy="91.5" r="5.5"/>
</svg>
