<?xml version="1.0" encoding="UTF-8"?>
<svg id="Layer_1" data-name="Layer 1" xmlns="http://www.w3.org/2000/svg" viewBox="0 0 27.44 21.56">
  <defs>
    <style>
      .cls-1 {
        fill: #f5f6f6;
      }
    </style>
  </defs>
  <path class="cls-1" d="m24.5,0H2.94C1.32,0,0,1.31,0,2.94v1.33l1.96,1.05,11.3,6.05c.29.16.64.16.93,0l11.29-6.12,1.96-1.07v-1.23C27.44,1.31,26.12,0,24.5,0h0Z"/>
  <path class="cls-1" d="m15.12,13.1c-.44.23-.92.34-1.4.34s-.95-.12-1.39-.34L1.96,7.55l-1.96-1.05v12.12c0,1.62,1.32,2.94,2.94,2.94h21.56c1.63,0,2.94-1.32,2.94-2.94V6.42l-1.96,1.06-10.36,5.62h0Z"/>
</svg>