<?xml version="1.0" encoding="UTF-8"?><svg id="Layer_1" xmlns="http://www.w3.org/2000/svg" viewBox="0 0 335.04 75.26"><defs><style>.cls-1{fill:#f9f9f9;}.cls-2{fill:#696968;}.cls-3{fill:#00C0B0;}</style></defs><g><path class="cls-1" d="M290.43,56.65h-2.62v-2.65h2.62v2.65Z"/><path class="cls-1" d="M299.96,45.15c.65,.28,1.34,.74,2.04,1.37l-1.55,1.83c-1.16-.98-1.85-1.28-2.88-1.28-1.95,0-3.17,1.44-3.17,3.75s1.24,3.78,3.16,3.78c.56,0,1.05-.1,1.47-.31,.43-.2,.96-.56,1.62-1.08l1.52,1.8c-1.42,1.32-2.8,1.93-4.58,1.93-3.63,0-5.89-2.6-5.89-6.15s2.19-6.05,5.89-6.05c.92,0,1.7,.13,2.37,.41Z"/><path class="cls-1" d="M314.49,50.84c.05,3.4-2.29,6.15-5.82,6.1-3.53,.05-5.89-2.7-5.84-6.1-.05-3.4,2.31-6.15,5.84-6.1,3.53-.05,5.87,2.7,5.82,6.1Zm-8.93,0c0,2.31,1.21,3.75,3.11,3.75s3.09-1.44,3.09-3.75-1.19-3.75-3.09-3.75-3.11,1.46-3.11,3.75Z"/><path class="cls-1" d="M329.37,45.03v11.61h-2.57v-5.92c0-1.19,.02-2.37,.05-3.53-.36,1.34-.69,2.52-1,3.53l-1.78,5.92h-2.29l-1.82-5.92-.51-1.65c-.34-1.16-.54-1.78-.56-1.86,.03,1.16,.05,2.32,.05,3.5v5.94h-2.54v-11.61h4.14l1.39,4.55c.41,1.36,.75,2.55,1,3.58,.25-1.03,.57-2.22,.98-3.58l1.37-4.55h4.07Z"/></g><path class="cls-3" d="M20.52,3.9l25.15,37.69V19.56c0-1.22-.08-1.37-.84-2.58l-8.06-12.92v-.15h19.3v.15l-7.9,12.92c-.76,1.22-.84,1.37-.84,2.58V57.33h-11.55L10.49,19.56v22.12c0,1.22,.08,1.37,.84,2.58l8.06,12.92v.15H.08v-.15l7.9-12.92c.76-1.22,.84-1.37,.84-2.58V18.49c0-1.22,0-1.44-.53-2.36L0,4.05v-.15H20.52Z"/><path class="cls-3" d="M57.22,57.17l4.18-5.47c.53-.68,.61-.91,.61-1.98V11.5c0-1.06-.08-1.29-.61-1.98l-4.18-5.47v-.15h26.6v.15l-4.18,5.47c-.53,.68-.61,.91-.61,1.98V49.73c0,1.06,.08,1.29,.61,1.98l4.18,5.47v.15h-26.6v-.15Z"/><path class="cls-2" d="M91.11,11.5c0-1.06-.08-1.29-.61-1.98l-4.18-5.47v-.15h26.6v.15l-4.18,5.47c-.53,.68-.61,.91-.61,1.98V54.36c0,1.29,.15,1.37,1.29,1.37h4.41c1.14,0,1.44-.23,2.05-1.14l12.39-18.54h.15v21.28h-42.1v-.15l4.18-5.47c.53-.68,.61-.91,.61-1.98V11.5Z"/><path class="cls-2" d="M147.72,37.49c.3,8.89,5.24,11.86,10.79,11.86,4.1,0,8.81-1.82,11.17-5.85l.15,.08c-2.13,9.88-8.51,14.36-17.94,14.36-10.26,0-20.14-5.85-20.14-19.38s9.04-19.76,20.75-19.76c8.44,0,17.86,3.5,17.86,17.1,0,.53,0,.91-.08,1.6h-22.57Zm0-1.44h8.59c.08-1.22,.08-2.43,.08-3.5,0-10.79-2.05-12.24-4.18-12.24-2.89,0-4.48,2.74-4.48,15.73Z"/><path class="cls-2" d="M191.41,18.8c5.4,0,9.35,1.06,11.32,1.98,.68,.3,.91,.23,1.75-.53l8.21-7.45,.15,.08v11.32h-7.22c2.36,1.98,3.65,4.26,3.65,7.9,0,8.66-7.22,11.78-17.63,11.78-2.58,0-5.01-.15-7.22-.61-.68,.46-1.14,1.14-1.14,1.98,0,2.13,2.81,3.19,8.36,3.19h7.6c8.81,0,13.6,2.96,13.6,9.88,0,9.73-9.58,16.95-23.33,16.95-7.52,0-15.65-2.13-15.65-6.92,0-2.66,2.28-5.32,8.66-6.16-5.93-1.22-9.27-4.64-9.27-9.04,0-4.94,4.03-8.51,10.34-10.03-5.85-1.44-9.88-4.86-9.88-11.63,0-9.04,7.22-12.69,17.71-12.69Zm-8.13,43.55c-1.37,.99-2.2,2.05-2.2,3.8,0,4.48,5.55,7.37,11.63,7.37,5.32,0,11.02-2.2,11.02-6.61,0-2.43-1.14-3.65-6.08-3.8l-11.02-.38c-1.22-.08-2.28-.15-3.34-.38Zm8.21-19.84c2.43,0,3.88-2.2,3.88-11.25s-1.37-11.1-3.88-11.1-3.88,2.2-3.88,11.02,1.52,11.32,3.88,11.32Z"/><path class="cls-2" d="M235.26,28.75v-.46c0-4.86-1.14-7.98-4.18-7.98-1.22,0-1.37,.08-1.75,.76l-7.07,12.24h-.15l-5.47-11.4c5.55-1.98,11.55-3.12,16.72-3.12,5.47,0,10.03,.99,13,3.72,2.58,2.36,4.03,6,4.03,11.55,0,.99-.08,1.82-.08,2.05l-.61,11.48c-.15,2.89,.53,4.1,1.75,4.1,.76,0,1.37-.3,1.82-.99h.15c.15,.91-.08,2.05-.61,3.04-1.52,2.58-4.33,4.18-8.44,4.18-4.79,0-8.97-2.66-9.42-6.99-1.6,4.1-5.47,6.99-10.49,6.99-5.7,0-10.56-3.8-10.56-11.1,0-7.68,6.69-11.7,13-11.7,3.65,0,6.31,.53,8.21,1.9l.15-8.28Zm-7.07,16.49c0,4.33,1.6,6.38,3.8,6.38,1.14,0,2.28-.76,2.89-1.6l.23-12.16c-.61-.15-1.29-.23-1.98-.23-3.12,0-4.94,3.12-4.94,7.6Z"/><path class="cls-2" d="M273.71,51.55c0,.99,.08,1.22,.61,1.9l2.96,3.72v.15h-22.42v-.15l2.89-3.72c.53-.68,.61-.91,.61-1.9V9.75c0-.99-.08-1.22-.61-1.9l-2.89-3.8v-.15l18.85-2.28V51.55Z"/><path class="cls-3" d="M304.69,1.86l-19.49,15.27c-1.19,1.19-1.86,2.81-1.86,4.5v29.55c0,3.51,2.85,6.36,6.36,6.36h38.99c3.51,0,6.36-2.85,6.36-6.36V21.63c0-1.69-.67-3.3-1.86-4.5l-19.49-15.27c-2.48-2.48-6.51-2.48-9,0Z"/><g><path class="cls-1" d="M290.77,50.42h-2.48v-2.51h2.48v2.51Z"/><path class="cls-1" d="M299.82,39.5c.62,.26,1.27,.7,1.94,1.3l-1.47,1.74c-1.1-.93-1.75-1.21-2.73-1.21-1.85,0-3.01,1.37-3.01,3.55s1.18,3.59,3,3.59c.53,0,.99-.09,1.4-.3,.4-.19,.92-.53,1.54-1.02l1.44,1.71c-1.35,1.26-2.65,1.83-4.35,1.83-3.45,0-5.59-2.47-5.59-5.84s2.08-5.74,5.59-5.74c.87,0,1.61,.12,2.25,.39Z"/><path class="cls-1" d="M313.6,44.91c.05,3.23-2.17,5.84-5.53,5.79-3.35,.05-5.59-2.56-5.54-5.79-.05-3.23,2.19-5.84,5.54-5.79,3.35-.05,5.57,2.56,5.53,5.79Zm-8.47,0c0,2.19,1.15,3.55,2.95,3.55s2.93-1.37,2.93-3.55-1.13-3.55-2.93-3.55-2.95,1.38-2.95,3.55Z"/><path class="cls-1" d="M327.73,39.4v11.02h-2.44v-5.62c0-1.13,.02-2.25,.05-3.35-.34,1.27-.65,2.39-.95,3.35l-1.69,5.62h-2.17l-1.72-5.62-.48-1.57c-.33-1.1-.51-1.69-.53-1.77,.03,1.1,.05,2.2,.05,3.32v5.63h-2.41v-11.02h3.93l1.32,4.31c.39,1.29,.71,2.42,.95,3.4,.23-.98,.54-2.11,.93-3.4l1.3-4.31h3.86Z"/></g></svg>