<svg id="Layer_1" data-name="Layer 1" xmlns="http://www.w3.org/2000/svg" viewBox="0 0 17.88 14.53"><defs><style>.cls-1{fill:#fff;}</style></defs><title>icon-social-twitter</title><path class="cls-1" d="M17.88,1.72a7.43,7.43,0,0,1-2.1.58,3.78,3.78,0,0,0,1.61-2,7.55,7.55,0,0,1-2.33.89A3.67,3.67,0,0,0,8.71,3.67a3.25,3.25,0,0,0,.1.83A10.42,10.42,0,0,1,1.24.67a3.69,3.69,0,0,0,1.14,4.9A3.71,3.71,0,0,1,.72,5.11v0a3.66,3.66,0,0,0,2.94,3.6,3.83,3.83,0,0,1-1,.13A4,4,0,0,1,2,8.82a3.68,3.68,0,0,0,3.43,2.54A7.32,7.32,0,0,1,.87,12.93a6.35,6.35,0,0,1-.87,0,10.38,10.38,0,0,0,5.62,1.65A10.37,10.37,0,0,0,16.06,4.09c0-.16,0-.31,0-.47a7.35,7.35,0,0,0,1.83-1.9"/></svg>