<?xml version="1.0" encoding="UTF-8"?><svg id="Layer_1" xmlns="http://www.w3.org/2000/svg" viewBox="0 0 21.62 26.28"><defs><style>.cls-1{fill:#f9f9f9;}.cls-2{fill:#00AEEF;}</style></defs><path class="cls-2" d="M8.93,.78L.78,7.16C.28,7.66,0,8.34,0,9.04v14.58c0,1.47,1.19,2.66,2.66,2.66H18.96c1.47,0,2.66-1.19,2.66-2.66V9.04c0-.71-.28-1.38-.78-1.88L12.69,.78c-1.04-1.04-2.72-1.04-3.76,0Z"/><g><path class="cls-1" d="M10.83,7.09c2.32,0,4.2,1.92,4.2,4.24s-1.88,4.2-4.2,4.2-4.24-1.88-4.24-4.2,1.92-4.24,4.24-4.24Zm0,1.33c-1.61,0-2.9,1.3-2.9,2.9s1.3,2.87,2.9,2.87,2.87-1.3,2.87-2.87-1.3-2.9-2.87-2.9Z"/><path class="cls-1" d="M10.83,17.45c-3.26,0-6.01,2.28-6.67,5.38h1.39c.64-2.34,2.77-4.04,5.29-4.04s4.64,1.71,5.28,4.04h1.35c-.67-3.1-3.42-5.38-6.63-5.38Z"/></g></svg>