<?xml version="1.0" encoding="utf-8"?>
<!-- Generator: Adobe Illustrator 26.3.1, SVG Export Plug-In . SVG Version: 6.00 Build 0)  -->
<svg version="1.1" id="Layer_1" xmlns="http://www.w3.org/2000/svg" xmlns:xlink="http://www.w3.org/1999/xlink" x="0px" y="0px"
	 viewBox="0 0 176.2 201.4" style="enable-background:new 0 0 176.2 201.4;" xml:space="preserve">
<style type="text/css">
	.st0{fill:none;stroke:#6C6B6B;stroke-width:5.5;stroke-miterlimit:10;}
	.st1{fill:#00AEEF;}
	.st2{fill:#6C6B6B;}
</style>
<path class="st0" d="M139.1,42.8l-22,17.3c-1.3,1.3-2.1,3.2-2.1,5.1v39.4c0,4,3.2,7.2,7.2,7.2h44.1c4,0,7.2-3.2,7.2-7.2V65.1
	c0-1.9-0.8-3.7-2.1-5.1l-22-17.3C146.5,40,141.9,40,139.1,42.8L139.1,42.8z"/>
<path class="st0" d="M78.4,4.1l-14,11c-0.9,0.9-1.3,2-1.3,3.2v25.1c0,2.5,2,4.6,4.6,4.6h28c2.5,0,4.6-2,4.6-4.6V18.3
	c0-1.2-0.5-2.4-1.3-3.2l-14-11C83.1,2.3,80.2,2.3,78.4,4.1L78.4,4.1z"/>
<path class="st1" d="M90.9,201.4c-5.1,0-10-1.1-14.6-3.3c-8.4-3.9-14.8-10.9-17.9-19.6c-3.2-8.7-2.8-18.1,1.2-26.6
	c3.9-8.4,10.9-14.8,19.6-17.9c3.8-1.4,7.8-2.1,11.9-2.1c5.1,0,10,1.1,14.7,3.3c15.7,7.3,23.6,25.5,18.4,41.9l32.8,15.4
	c2.2,1.1,3.2,3.8,2.2,6c-0.7,1.6-2.4,2.6-4.1,2.6c-0.7,0-1.3-0.1-1.9-0.4l-32.9-15.4C113.8,195.2,102.7,201.4,90.9,201.4L90.9,201.4
	z M91,140.9c-3,0-5.9,0.5-8.8,1.6c-6.4,2.4-11.6,7.1-14.5,13.3c-2.9,6.2-3.2,13.2-0.9,19.6c2.3,6.4,7.1,11.6,13.3,14.5
	c3.4,1.6,7.1,2.4,10.8,2.4c10,0,19.1-5.8,23.3-14.8c2.9-6.2,3.2-13.2,0.9-19.6c-2.3-6.4-7.1-11.6-13.3-14.5
	C98.4,141.8,94.7,140.9,91,140.9L91,140.9z"/>
<g>
	<path class="st2" d="M83.5,180.3c7.8,0,14.1-6.3,14.1-14.1v-20.7c-1.8-0.6-3.6-0.9-5.5-1v21.7c0,4.7-3.8,8.6-8.6,8.6H70.4
		c0.8,2,1.8,3.9,3.1,5.5C73.5,180.3,83.5,180.3,83.5,180.3z"/>
	<path class="st2" d="M55,179.7c-0.6-1.6-1-3.2-1.4-4.9H14.1c-4.7,0-8.6-3.9-8.6-8.6v-62.1c0-2.2,0.8-4.3,2.4-6L42.5,71l0.2-0.2
		c3.3-3.3,8.8-3.3,12.1,0l34.8,27.3c1.6,1.6,2.4,3.7,2.4,6v24.3c1.8,0.1,3.7,0.2,5.5,0.6v-24.9c0-3.8-1.5-7.3-4.1-10L58.6,66.8
		c-5.5-5.3-14.2-5.3-19.7,0L4.4,93.9l-0.2,0.2c-2.7,2.7-4.1,6.2-4.1,10v62.1c0,7.8,6.3,14.1,14.1,14.1h41.2
		C55.2,180.1,55.1,179.9,55,179.7z"/>
</g>
</svg>
