<?xml version="1.0" encoding="UTF-8"?><svg id="Layer_1" xmlns="http://www.w3.org/2000/svg" viewBox="0 0 201.94 105.89"><defs><style>.cls-1{fill:#6c6b6b;}.cls-2{fill:#00AEEF;}</style></defs><path class="cls-1" d="M93.52,19.26l-27.63,21.65c-1.69,1.69-2.64,3.98-2.64,6.37v49.44c0,4.98,4.04,9.02,9.02,9.02h55.26c4.98,0,9.02-4.04,9.02-9.02V47.28c0-2.39-.95-4.68-2.64-6.37l-27.63-21.65c-3.52-3.52-9.23-3.52-12.75,0Z"/><path class="cls-2" d="M200.3,6.76c-1.06-1.06-2.46-1.64-3.95-1.64h-42.54c-3.09,0-5.61,2.51-5.61,5.6v7.19h-27.63c-3.43,0-6.22,2.79-6.22,6.22V58.39c0,3.42,2.79,6.21,6.22,6.21h3.11v7.76c0,1,.58,1.91,1.44,2.31,.34,.17,.72,.26,1.13,.26,.64,0,1.24-.23,1.65-.61l11.44-9.71h32.41c3.43,0,6.22-2.78,6.22-6.21v-13.58h2.63l9.39,7.98c.72,.61,1.72,.79,2.67,.4l.11-.05c.89-.44,1.44-1.33,1.44-2.31v-6.02h2.15c3.09,0,5.6-2.51,5.6-5.6V10.72c0-1.49-.58-2.9-1.64-3.96Zm-27.48,51.63c0,.59-.49,1.07-1.09,1.07h-33.34c-.58,0-1.14,.2-1.67,.61l-7.92,6.73v-4.78c0-.68-.27-1.33-.75-1.81-.48-.49-1.13-.75-1.82-.75h-5.67c-.6,0-1.09-.48-1.09-1.07V24.13c0-.6,.49-1.09,1.09-1.09h51.3c.53,.05,.96,.54,.96,1.09V58.4Zm23.99-19.18c0,.25-.21,.46-.46,.46h-4.72c-.68,0-1.34,.27-1.81,.75-.49,.49-.75,1.13-.75,1.81v3.04l-5.87-4.99c-.46-.4-1.06-.62-1.67-.62h-3.56v-15.55c0-3.22-2.41-5.88-5.62-6.2h-.27c-.13-.02-.25-.02-.33-.02h-18.41v-7.19c0-.25,.21-.46,.48-.46h42.54c.25,0,.46,.21,.46,.46v28.49Z"/><g><circle class="cls-2" cx="145.59" cy="41.43" r="3.99"/><g><circle class="cls-2" cx="134.48" cy="41.43" r="3.99"/><circle class="cls-2" cx="156.71" cy="41.43" r="3.99"/></g></g></svg>