<?xml version="1.0" encoding="UTF-8"?><svg id="Layer_6" xmlns="http://www.w3.org/2000/svg" viewBox="0 0 201.94 105.89"><defs><style>.cls-1{fill:#6c6b6b;}.cls-2{fill:#00AEEF;}</style></defs><path class="cls-1" d="M94.37,18.66l-27.63,21.65c-1.69,1.69-2.64,3.98-2.64,6.37v49.44c0,4.98,4.04,9.02,9.02,9.02h55.26c4.98,0,9.02-4.04,9.02-9.02V46.68c0-2.39-.95-4.68-2.64-6.37l-27.63-21.65c-3.52-3.52-9.23-3.52-12.75,0Z"/><path class="cls-2" d="M178.71,11.73h-59.58c-4.62,0-8.38,3.76-8.38,8.38V56.91c0,4.62,3.76,8.38,8.38,8.38h59.58c4.62,0,8.38-3.76,8.38-8.38V20.11c0-4.62-3.76-8.38-8.38-8.38Zm-61.72,11.1l26.11,23.52c1.6,1.44,3.65,2.23,5.79,2.23s4.19-.79,5.79-2.23l26.17-23.52V56.91c0,1.22-.92,2.14-2.14,2.14h-59.58c-1.22,0-2.14-.92-2.14-2.14V22.82Zm33.51,18.88c-.53,.48-1.08,.72-1.61,.72s-1.07-.24-1.6-.72l-26.36-23.74h55.97l-26.41,23.74Z"/></svg>