<?xml version="1.0" encoding="UTF-8"?><svg id="Layer_5" xmlns="http://www.w3.org/2000/svg" viewBox="0 0 201.94 105.89"><defs><style>.cls-1{fill:#6c6b6b;}.cls-2{fill:#00AEEF;}</style></defs><path class="cls-1" d="M94.48,18.84l-27.63,21.65c-1.69,1.69-2.64,3.98-2.64,6.37v49.44c0,4.98,4.04,9.02,9.02,9.02h55.26c4.98,0,9.02-4.04,9.02-9.02V46.86c0-2.39-.95-4.68-2.64-6.37l-27.63-21.65c-3.52-3.52-9.23-3.52-12.75,0Z"/><path class="cls-2" d="M109.53,66.86l2.43,2.43c2.45,2.46,6.24,3.81,10.66,3.81,12.85,0,25.65-10.88,32.13-17.36,9.01-9.01,14.77-18.13,16.67-26.37,1.56-6.77,.39-12.91-3.12-16.42l-2.44-2.44c-1.92-1.92-4.47-2.97-7.2-2.97s-5.28,1.06-7.2,2.97l-4.93,4.93c-1.92,1.92-2.97,4.47-2.97,7.2s1.06,5.28,2.98,7.2l2.4,2.38c1.72,1.72,1.72,4.53,0,6.25l-11.43,11.43c-.83,.83-1.94,1.29-3.13,1.29s-2.3-.46-3.13-1.29l-2.39-2.39c-1.92-1.92-4.48-2.98-7.2-2.98-2.72,0-5.28,1.06-7.2,2.98l-4.94,4.94c-3.97,3.97-3.97,10.43,0,14.4Zm43.47-38.69l-2.39-2.39c-.83-.83-1.29-1.94-1.29-3.13,0-1.19,.46-2.3,1.29-3.13l4.93-4.93c.83-.83,1.94-1.29,3.13-1.29s2.3,.46,3.13,1.29l2.44,2.44c1.55,1.55,2.89,5.37,1.59,11.07-1.14,4.99-4.69,13.13-15.14,23.59-13.62,13.62-23.46,15.65-28.12,15.65-2.63,0-4.84-.65-6.23-1.82l-.34-.32-2.39-2.39c-1.72-1.72-1.72-4.53,0-6.25l4.93-4.93c.83-.83,1.94-1.29,3.13-1.29s2.29,.46,3.13,1.29l2.39,2.39c1.92,1.92,4.47,2.97,7.2,2.97s5.28-1.06,7.2-2.97l11.4-11.4,.03-.03c3.97-3.97,3.97-10.43,0-14.4Z"/></svg>