<?xml version="1.0" encoding="UTF-8"?><svg id="Layer_1" xmlns="http://www.w3.org/2000/svg" viewBox="0 0 122.12 124.99"><defs><style>.cls-1{fill:#6c6b6b;}.cls-2{fill:#00AEEF;}.cls-3{fill:none;stroke:#6c6b6b;stroke-miterlimit:10;stroke-width:3.81px;}</style></defs><path class="cls-3" d="M96.44,29.67l-15.27,11.96c-.93,.93-1.46,2.2-1.46,3.52v27.33c0,2.75,2.23,4.98,4.98,4.98h30.54c2.75,0,4.98-2.23,4.98-4.98v-27.33c0-1.32-.52-2.59-1.46-3.52l-15.27-11.96c-1.95-1.95-5.1-1.95-7.05,0Z"/><path class="cls-3" d="M54.35,2.83l-9.71,7.61c-.59,.59-.93,1.4-.93,2.24V30.06c0,1.75,1.42,3.17,3.17,3.17h19.42c1.75,0,3.17-1.42,3.17-3.17V12.68c0-.84-.33-1.65-.93-2.24l-9.71-7.61c-1.24-1.24-3.24-1.24-4.48,0Z"/><g><path class="cls-1" d="M57.9,124.99c5.38,0,9.76-4.38,9.76-9.76v-14.38c-1.24-.39-2.52-.63-3.81-.69v15.07c0,3.28-2.67,5.95-5.95,5.95h-24.07c.55,1.39,1.28,2.67,2.17,3.81h21.9Z"/><path class="cls-1" d="M38.16,124.57c-.41-1.12-.73-2.25-.98-3.4H9.76c-3.28,0-5.95-2.67-5.95-5.95v-43.07c0-1.55,.59-3.01,1.67-4.13l23.97-18.78,.17-.15c2.32-2.32,6.09-2.32,8.41,0l24.15,18.93c1.08,1.11,1.67,2.58,1.67,4.13v30.15c1.29,.04,2.56,.16,3.81,.39v-30.54c0-2.61-1.02-5.06-2.86-6.9l-24.16-18.94c-3.78-3.69-9.85-3.69-13.63,0L3.03,65.1l-.17,.15c-1.84,1.84-2.86,4.29-2.86,6.9v43.07c0,5.38,4.38,9.76,9.76,9.76h28.57c-.05-.14-.11-.28-.16-.42Z"/></g><path class="cls-2" d="M98.01,97.45h-7.89v-7.89c0-1.09-.89-1.97-1.97-1.97s-1.97,.89-1.97,1.97v7.89h-7.89c-1.09,0-1.97,.89-1.97,1.97s.89,1.97,1.97,1.97h7.89v7.89c0,1.09,.89,1.97,1.97,1.97s1.97-.89,1.97-1.97v-7.89h7.89c1.09,0,1.97-.89,1.97-1.97s-.89-1.97-1.97-1.97Z"/><path class="cls-2" d="M10.7,35.2H30.44c1.09,0,1.97-.89,1.97-1.97s-.89-1.97-1.97-1.97H10.7c-1.09,0-1.97,.89-1.97,1.97s.89,1.97,1.97,1.97Z"/><g><path class="cls-2" d="M43.7,92.28H23.96c-1.09,0-1.97,.89-1.97,1.97s.89,1.97,1.97,1.97h19.73c1.09,0,1.97-.89,1.97-1.97s-.89-1.97-1.97-1.97Z"/><path class="cls-2" d="M43.7,81.43H23.96c-1.09,0-1.97,.89-1.97,1.97s.89,1.97,1.97,1.97h19.73c1.09,0,1.97-.89,1.97-1.97s-.89-1.97-1.97-1.97Z"/></g><path class="cls-2" d="M107.64,1.92c-.79-.79-1.97-.79-2.76,0l-5.62,5.62-5.62-5.62c-.79-.79-1.97-.79-2.76,0-.79,.79-.79,1.97,0,2.76l5.62,5.62-5.62,5.62c-.79,.79-.79,1.97,0,2.76,.39,.39,.89,.59,1.38,.59s.99-.2,1.38-.59l5.62-5.62,5.62,5.62c.39,.39,.89,.59,1.38,.59s.99-.2,1.38-.59c.79-.79,.79-1.97,0-2.76l-5.62-5.62,5.62-5.62c.79-.79,.79-1.97,0-2.76h0Z"/></svg>