<svg id="Layer_1" data-name="Layer 1" xmlns="http://www.w3.org/2000/svg" viewBox="0 0 176.64 163.86"><defs><style>.cls-1{fill:#00AEEF;}</style></defs><path class="cls-1" d="M137.06,163.86a39.58,39.58,0,1,1,39.58-39.58A39.62,39.62,0,0,1,137.06,163.86Zm0-73.45a33.88,33.88,0,1,0,33.88,33.87A33.9,33.9,0,0,0,137.06,90.41Z"/><path class="cls-1" d="M130.73,138.16a2.85,2.85,0,0,1-2.07-.89l-8.37-8.82a2.8,2.8,0,0,1,.12-3.67,2.84,2.84,0,0,1,4-.22l6.32,6.61,19.06-20a2.85,2.85,0,0,1,3.92,4.09l-21,22.09A2.82,2.82,0,0,1,130.73,138.16Z"/><path class="cls-1" d="M174.6,51.41a2.92,2.92,0,0,0-.83-.12H159.49V35.56A18.51,18.51,0,0,0,141,17.1H72.36L56.09.82a2.8,2.8,0,0,0-2-.82H18.46A18.51,18.51,0,0,0,0,18.46V122.31a20.13,20.13,0,0,0,20.08,20.08H88.29a2.82,2.82,0,1,0,0-5.63H20a14.16,14.16,0,0,1-4.13-.67l-3.18-1L39,56.91H170l-7.78,25a2.66,2.66,0,0,0-.3,1.23,2.81,2.81,0,0,0,5.58.46h.08l8.93-28.69A2.82,2.82,0,0,0,174.6,51.41Zm-20.74-.12H37a2.8,2.8,0,0,0-2.66,1.91L9.14,128.86s-3.51-1.59-3.51-10.45v-100A12.86,12.86,0,0,1,18.45,5.63H52.94L69.21,21.9a2.84,2.84,0,0,0,2,.82H141a12.86,12.86,0,0,1,12.83,12.83Z"/></svg>