<svg id="Layer_1" data-name="Layer 1" xmlns="http://www.w3.org/2000/svg" viewBox="0 0 228.89 132.44"><defs><style>.cls-1{fill:#00AEEF;}</style></defs><path class="cls-1" d="M540,545.9A36.09,36.09,0,1,1,575.89,510,36.13,36.13,0,0,1,540,545.9Zm0-66.5A30.28,30.28,0,0,0,509.4,510c0,16.94,13.44,30.21,30.6,30.21A30.25,30.25,0,0,0,570.21,510C570.21,492.85,556.94,479.4,540,479.4Z" transform="translate(-425.35 -473.72)"/><path class="cls-1" d="M591.21,606.16a2.77,2.77,0,0,1-1.83-.66,2,2,0,0,1-.68-1.46v-.12a49.18,49.18,0,0,0-97.78,0V604a2.34,2.34,0,0,1-2.51,2.12,2.47,2.47,0,0,1-.54,0h-.18a2,2,0,0,1-1.5-.73,2.84,2.84,0,0,1-.57-2.33,54.75,54.75,0,0,1,108.78-.12c0,1.73-1.13,3.18-2.45,3.18h-.18A2.47,2.47,0,0,1,591.21,606.16Z" transform="translate(-425.35 -473.72)"/><path class="cls-1" d="M612.79,561.25a27.83,27.83,0,1,1,28-28A27.86,27.86,0,0,1,612.79,561.25Zm0-50a22.14,22.14,0,0,0,0,44.28,22.14,22.14,0,1,0,0-44.28Z" transform="translate(-425.35 -473.72)"/><path class="cls-1" d="M651.41,606.16a3,3,0,0,1-2.93-2.33c-2.38-17.52-17.73-30.78-35.69-30.78a37,37,0,0,0-16.23,4.05,2.83,2.83,0,0,1-1.47.44,3.1,3.1,0,0,1-2.57-1.52A3.47,3.47,0,0,1,594,572a45.33,45.33,0,0,1,18.77-4.6A42.17,42.17,0,0,1,654.2,603a2.82,2.82,0,0,1-.63,2.27,1.93,1.93,0,0,1-1.44.8H652A2.47,2.47,0,0,1,651.41,606.16Z" transform="translate(-425.35 -473.72)"/><path class="cls-1" d="M466.81,561.25a27.83,27.83,0,1,1,0-55.66,27.83,27.83,0,0,1,0,55.66Zm0-50a22.14,22.14,0,1,0,21.95,21.94A22.17,22.17,0,0,0,466.81,511.28Z" transform="translate(-425.35 -473.72)"/><path class="cls-1" d="M428.47,606.16a1.72,1.72,0,0,1-.39,0l-.11,0h-.11a2.47,2.47,0,0,1-1.88-.92,2.62,2.62,0,0,1-.59-2.1,42.19,42.19,0,0,1,41.42-35.72c5.79,0,12,1.5,19.11,4.58a3.77,3.77,0,0,1,1.16,4.08,3.1,3.1,0,0,1-2.57,1.52,2.76,2.76,0,0,1-1.4-.4,37,37,0,0,0-16.3-4.09,36,36,0,0,0-35.7,30.85A2.91,2.91,0,0,1,428.47,606.16Z" transform="translate(-425.35 -473.72)"/></svg>