<svg id="Layer_1" data-name="Layer 1" xmlns="http://www.w3.org/2000/svg" viewBox="0 0 26.97 26.97"><defs><style>.cls-1{fill:#00AEEF;}</style></defs><path class="cls-1" d="M539.83,526.45A13.49,13.49,0,1,0,553.29,540,13.5,13.5,0,0,0,539.83,526.45Zm8.88,21.38a11.89,11.89,0,0,1-5.89,3.63l-.43.11-.46.09-.69.1-.34,0a9.46,9.46,0,0,1-1.07.06h-.1c-.33,0-.65,0-1-.05l-.47,0-.53-.08-.59-.11-.17,0a11.89,11.89,0,0,1,2.8-23.44h0A11.9,11.9,0,0,1,551.72,540a11.72,11.72,0,0,1-1.4,5.55s-.05.11-.08.17c-.12.21-.25.42-.39.62s-.19.31-.29.46a3.92,3.92,0,0,1-.25.32c-.19.26-.38.5-.59.74Z" transform="translate(-526.32 -526.45)"/><path class="cls-1" d="M541,539.94l4.4-4.4a.82.82,0,0,0,0-1.17.83.83,0,0,0-1.17,0l-4.4,4.4-4.4-4.4a.83.83,0,0,0-1.17,1.17l4.4,4.4-4.4,4.4a.83.83,0,0,0,0,1.17.86.86,0,0,0,.59.24.82.82,0,0,0,.58-.24l4.4-4.4,4.4,4.4a.86.86,0,0,0,.59.24.83.83,0,0,0,.58-1.41Z" transform="translate(-526.32 -526.45)"/></svg>