<svg id="Layer_1" data-name="Layer 1" xmlns="http://www.w3.org/2000/svg" viewBox="0 0 195.57 175.1"><defs><style>.cls-1,.cls-2{fill:#00AEEF;}.cls-2{fill-rule:evenodd;}</style></defs><circle class="cls-1" cx="144" cy="24.95" r="3.9"/><path class="cls-2" d="M144,34.84a3.32,3.32,0,0,0-3.24,3.39h0L140.85,78a3.32,3.32,0,1,0,6.63.13V78l-.12-39.77a3.32,3.32,0,0,0-3.26-3.37Z"/><path class="cls-1" d="M194.93,43.44a52.11,52.11,0,0,0-2.28-9,50.44,50.44,0,0,0-9.32-16.26A51.44,51.44,0,0,0,168.27,6,51.67,51.67,0,0,0,150.37.38c-1.54-.19-3.09-.31-4.62-.36s-3,0-4.64.07a51.65,51.65,0,0,0-9.17,1.36A51,51,0,0,0,114.83,9.1a51.48,51.48,0,0,0-22.2,40.21A51.49,51.49,0,0,0,99,76.38c.76,1.39,1.59,2.73,2.52,4.1.42.61.88,1.21,1.4,1.88l.62.79L100.1,99.34a3,3,0,0,0,.41,2.27,3,3,0,0,0,1.89,1.31,3.71,3.71,0,0,0,.66.07,3.16,3.16,0,0,0,.81-.11l17.6-5.17.76.36c.82.4,1.68.82,2.54,1.17,1.49.6,3,1.14,4.56,1.6a50.56,50.56,0,0,0,9.28,1.87A51.84,51.84,0,0,0,144,103c1.3,0,2.62,0,3.91-.15a51.56,51.56,0,0,0,9.16-1.54,52.43,52.43,0,0,0,8.74-3.16,51.75,51.75,0,0,0,8.07-4.7,50.85,50.85,0,0,0,13.24-13.79A50.81,50.81,0,0,0,194.47,62a51.53,51.53,0,0,0,1.08-9.29A52.48,52.48,0,0,0,194.93,43.44ZM109.7,83.1a3,3,0,0,0-.62-2.55q-1.35-1.64-2.6-3.47c-.85-1.24-1.58-2.42-2.24-3.61a46.06,46.06,0,0,1-3.36-7.69,45.41,45.41,0,0,1-2.26-16.2,45.7,45.7,0,0,1,1.09-8.14,46.47,46.47,0,0,1,6.51-15.19,47.18,47.18,0,0,1,12-12.2,46.18,46.18,0,0,1,7.3-4.11,44.94,44.94,0,0,1,15.92-3.83q2.07-.12,4.08-.06c1.36,0,2.73.15,4.08.31a46.17,46.17,0,0,1,15.78,5,46.16,46.16,0,0,1,13.34,10.74,45.1,45.1,0,0,1,4.79,6.86A46.55,46.55,0,0,1,187,36.46a45.32,45.32,0,0,1-4.87,39.92,45.93,45.93,0,0,1-5.35,6.71,45.08,45.08,0,0,1-6.35,5.46,44.84,44.84,0,0,1-14.82,6.93,44.28,44.28,0,0,1-16.34,1.24,45.55,45.55,0,0,1-8.19-1.65c-1.49-.45-2.81-.91-4-1.4s-2.65-1.15-4-1.82a3,3,0,0,0-1.4-.35,3,3,0,0,0-.84.12L107,95.7Z"/><path class="cls-1" d="M50.73,120A33.95,33.95,0,1,0,16.6,86.24,33.8,33.8,0,0,0,50.73,120Zm-27-33.76a26.76,26.76,0,0,1,27-27c15,0,26.67,11.88,26.67,27a26.7,26.7,0,0,1-26.67,26.67C35.57,112.91,23.69,101.19,23.69,86.24Z"/><path class="cls-1" d="M84.69,138.93A50.9,50.9,0,0,0,.05,171.15,3.57,3.57,0,0,0,.79,174a2.71,2.71,0,0,0,2.1,1,3.17,3.17,0,0,0,3.9-2.83,44,44,0,0,1,87.52,0,2.73,2.73,0,0,0,.93,2,3.43,3.43,0,0,0,2.31.85,3.77,3.77,0,0,0,.66-.06c1.73,0,3.16-1.72,3.18-4A50.91,50.91,0,0,0,84.69,138.93Z"/></svg>