<svg id="Layer_1" data-name="Layer 1" xmlns="http://www.w3.org/2000/svg" viewBox="0 0 26.97 26.97"><defs><style>.cls-1{fill:#00AEEF;}</style></defs><path class="cls-1" d="M539.83,531.5a5.11,5.11,0,1,1-5.14,5.13A5.14,5.14,0,0,1,539.83,531.5Zm0,1.61a3.5,3.5,0,1,0,3.47,3.52A3.51,3.51,0,0,0,539.83,533.11Z" transform="translate(-526.32 -526.45)"/><path class="cls-1" d="M539.83,526.45A13.49,13.49,0,1,1,526.32,540,13.49,13.49,0,0,1,539.83,526.45Zm0,15.7a8.25,8.25,0,0,1,8,6.52,11.71,11.71,0,0,0,3.85-8.71,11.9,11.9,0,1,0-20,8.71A8.27,8.27,0,0,1,539.83,542.15Zm6.61,7.66v0a6.65,6.65,0,0,0-13.23,0v0a11.57,11.57,0,0,0,6.62,2.05A11.78,11.78,0,0,0,546.44,549.81Z" transform="translate(-526.32 -526.45)"/></svg>