<svg id="Layer_1" data-name="Layer 1" xmlns="http://www.w3.org/2000/svg" viewBox="0 0 172.88 180.26"><defs><style>.cls-1{fill:#00AEEF;}</style></defs><path class="cls-1" d="M520.83,472.57a4.84,4.84,0,1,1,4.84-4.84A4.84,4.84,0,0,1,520.83,472.57Z" transform="translate(-453.36 -449.81)"/><path class="cls-1" d="M462.38,630.07a9.09,9.09,0,0,1-9-9V481.39a9.09,9.09,0,0,1,9-9h25.29l.14-.68A12.14,12.14,0,0,1,499.58,462h4.11l.21-.54a18.12,18.12,0,0,1,33.86,0l.21.54h4.11a12.16,12.16,0,0,1,11.77,9.68l.14.68h25.28a9.08,9.08,0,0,1,9,9v50.86a2.95,2.95,0,0,1-5.89,0V481.39a3.13,3.13,0,0,0-3.13-3.13H554.13v5.33a6.07,6.07,0,0,1-6,6.06H493.5a6.08,6.08,0,0,1-6-6.06v-5.33H462.38a3.14,3.14,0,0,0-3.13,3.13V621.05a3.13,3.13,0,0,0,3.13,3.13H543a2.95,2.95,0,1,1,0,5.89ZM499.55,467.9a6.28,6.28,0,0,0-6.14,6.41v9.45h54.83v-9.47a6.2,6.2,0,0,0-1.74-4.46,6.27,6.27,0,0,0-4.4-1.93h-8.81l-.47-2.39a12.21,12.21,0,0,0-9.56-9.56,12.56,12.56,0,0,0-2.45-.24,12.26,12.26,0,0,0-12,9.8l-.48,2.39h-8.81Z" transform="translate(-453.36 -449.81)"/><rect class="cls-1" x="45.54" y="64.31" width="59.02" height="5.89" rx="2.94"/><rect class="cls-1" x="45.54" y="102.26" width="36.25" height="5.89" rx="2.94"/><rect class="cls-1" x="45.54" y="140.21" width="28.66" height="5.89" rx="2.94"/><path class="cls-1" d="M585.35,630.07a40.9,40.9,0,1,1,40.89-40.9A40.95,40.95,0,0,1,585.35,630.07Zm0-75.9a35,35,0,1,0,35,35A35,35,0,0,0,585.35,554.17Z" transform="translate(-453.36 -449.81)"/><path class="cls-1" d="M578.8,603.51a2.93,2.93,0,0,1-2.14-.92L568,593.48a2.92,2.92,0,0,1,.12-3.8,3,3,0,0,1,4.16-.22l6.53,6.83,19.7-20.65a2.94,2.94,0,0,1,4,4.22L580.83,602.7A2.94,2.94,0,0,1,578.8,603.51Z" transform="translate(-453.36 -449.81)"/><circle class="cls-1" cx="28.29" cy="67.25" r="5.21"/><circle class="cls-1" cx="28.29" cy="105.21" r="5.21"/><circle class="cls-1" cx="28.29" cy="144.09" r="5.21"/></svg>