<svg id="Layer_1" data-name="Layer 1" xmlns="http://www.w3.org/2000/svg" viewBox="0 0 180.56 180.17"><defs><style>.cls-1{fill:#00AEEF;}</style></defs><path class="cls-1" d="M563.9,572.81a7.32,7.32,0,0,1-7-5.51l-.76-3.07a10.92,10.92,0,0,0-6.24-7.13,11.65,11.65,0,0,0-4.29-.83,10.27,10.27,0,0,0-5.42,1.49l-2.72,1.74a6.82,6.82,0,0,1-3.74,1.11,7.2,7.2,0,0,1-5.05-2.11l-6.94-6.94a7.26,7.26,0,0,1-1-8.83l1.71-2.66a10.54,10.54,0,0,0,.67-9.53,10.85,10.85,0,0,0-7.3-6.43l-3.1-.78a7.15,7.15,0,0,1-5.5-7v-9.82a7.31,7.31,0,0,1,5.51-7l3.07-.77a10.83,10.83,0,0,0,6.47-15.95l-1.75-2.71a7,7,0,0,1,1-8.8l6.93-6.93a7,7,0,0,1,5-2,7.57,7.57,0,0,1,3.84,1.05l2.66,1.71a10.16,10.16,0,0,0,5.32,1.5,11.21,11.21,0,0,0,4.19-.83,10.88,10.88,0,0,0,6.45-7.31l.78-3.1a7.15,7.15,0,0,1,7-5.49h9.82a7.3,7.3,0,0,1,7,5.51l.76,3.07a11.29,11.29,0,0,0,6.24,7.12,11.46,11.46,0,0,0,4.29.84,10.36,10.36,0,0,0,5.42-1.49l2.72-1.75a6.91,6.91,0,0,1,3.74-1.11,7.24,7.24,0,0,1,5.06,2.11l6.93,6.94a7.26,7.26,0,0,1,1,8.83L615,482.59a10.57,10.57,0,0,0-.67,9.54,10.9,10.9,0,0,0,7.3,6.43l3.1.77a7.17,7.17,0,0,1,5.31,7.13v9.88a7.31,7.31,0,0,1-5.51,7l-3.07.76A10.82,10.82,0,0,0,615,540.05l1.74,2.72a7.36,7.36,0,0,1-1.19,8.79l-6.94,6.94a6.87,6.87,0,0,1-5.07,2.21h0a7.4,7.4,0,0,1-3.76-1L597.07,558a10.34,10.34,0,0,0-5.41-1.5,10.51,10.51,0,0,0-4.13.84,10.86,10.86,0,0,0-6.43,7.3v.06l-.4,2.77a7.15,7.15,0,0,1-7,5.38Zm-18.69-22.39a16.52,16.52,0,0,1,6.5,1.26,17.23,17.23,0,0,1,9.93,11.56l.75,3.75H574l1-4a17,17,0,0,1,9.92-11.36,18.12,18.12,0,0,1,6.6-1.26,16.64,16.64,0,0,1,8.57,2.34l3.44,2.21,8.23-8.23-2.23-3.46A16.94,16.94,0,0,1,620,518.21l3.09-.77.66-1.1V505.82l-3.94-1a17,17,0,0,1-10.28-25.1l2.21-3.43-8.23-8.23-3.47,2.23a16.78,16.78,0,0,1-8.62,2.32,17.55,17.55,0,0,1-6.52-1.26A17.24,17.24,0,0,1,575,459.81l-1-3.94H562.44l-1,3.94a17,17,0,0,1-9.92,11.36,17.92,17.92,0,0,1-6.6,1.27,16.64,16.64,0,0,1-8.57-2.34l-3.44-2.21-8.29,8.29,2.69,3.43a16.93,16.93,0,0,1-10.51,25l-3.94,1v11.6l3.94,1a17,17,0,0,1,10.28,25.1l-2.21,3.43,8.23,8.23,3.47-2.23A16.32,16.32,0,0,1,545.21,550.42Z" transform="translate(-449.44 -449.86)"/><path class="cls-1" d="M568.33,541.79a30.46,30.46,0,1,1,30.46-30.46A30.49,30.49,0,0,1,568.33,541.79Zm0-54.71a24.25,24.25,0,1,0,24.25,24.25A24.28,24.28,0,0,0,568.33,487.08Z" transform="translate(-449.44 -449.86)"/><path class="cls-1" d="M511.31,599a30.48,30.48,0,0,1-6.87-60.18,3.25,3.25,0,0,1,.8-.1,2.93,2.93,0,0,1,2.85,2.35,2.79,2.79,0,0,1-.31,2.18,3.11,3.11,0,0,1-1.95,1.46c-10.78,2.39-18.77,12.49-19,24A24.28,24.28,0,0,0,511.11,593a24,24,0,0,0,23.65-18.79,3,3,0,0,1,2.92-2.52,2.94,2.94,0,0,1,.71.09,3,3,0,0,1,2.05,1.31,2.89,2.89,0,0,1,.4,2.32A30.14,30.14,0,0,1,511.31,599Z" transform="translate(-449.44 -449.86)"/><path class="cls-1" d="M506.3,630a7.31,7.31,0,0,1-7-5.52l-.76-3.07a10.91,10.91,0,0,0-6.24-7.12h0a1.23,1.23,0,0,0-.53-.25,11.09,11.09,0,0,0-4.06-.78,10.18,10.18,0,0,0-5.31,1.49l-2.71,1.75a6.9,6.9,0,0,1-3.74,1.1,7.22,7.22,0,0,1-5.06-2.11L464,608.59a7.54,7.54,0,0,1-1-9l1.71-2.66a10.54,10.54,0,0,0,.72-9.39,2.08,2.08,0,0,0-.16-.45V587l-.13-.25a11.8,11.8,0,0,0-7.05-5.76l-3.12-.78a7.29,7.29,0,0,1-5.5-7v-9.82a7.31,7.31,0,0,1,5.7-7l3.32-1a11.29,11.29,0,0,0,7.06-5.81l.11-.23v-.08a2,2,0,0,0,.16-.44,10.63,10.63,0,0,0-.7-9.35l-1.76-2.74a7.1,7.1,0,0,1,1-8.8l6.94-6.93a7.41,7.41,0,0,1,5.05-2,7.5,7.5,0,0,1,3.78,1l2.66,1.72a10.19,10.19,0,0,0,5.33,1.5,11.16,11.16,0,0,0,4.18-.83,3.28,3.28,0,0,1,1.23-.24,3.16,3.16,0,0,1,3.19,3,3.23,3.23,0,0,1-2.31,3,17.7,17.7,0,0,1-6.22,1.13,16.85,16.85,0,0,1-8.64-2.37l-3.64-2.19L467.67,533l2.23,3.46a16.67,16.67,0,0,1,1.24,14.6l-.07.19v0a1.69,1.69,0,0,0-.16.45,17,17,0,0,1-11.32,9.8l-3.94,1v11.65l4,.75a17.38,17.38,0,0,1,11.43,9.78,3,3,0,0,0,.13.45s0,.08,0,.11v.12l.07.19a16.53,16.53,0,0,1-1.25,14.61l-2.22,3.45,8.29,8.3,3.44-2.7a16.41,16.41,0,0,1,8.56-2.44,15.86,15.86,0,0,1,6.18,1.24,1.24,1.24,0,0,0,.68.4,16.62,16.62,0,0,1,9.61,11.31l1,3.94h11.66l.75-4a16.59,16.59,0,0,1,9.51-11.22h.18l.2-.07a18.06,18.06,0,0,1,6.61-1.27,16.67,16.67,0,0,1,8.58,2.34l3.43,2.21,8.23-8.23-2.23-3.47a16.17,16.17,0,0,1-1.21-14.58,1.31,1.31,0,0,0,.4-.69,2.91,2.91,0,0,1,2.75-1.67,3.15,3.15,0,0,1,3.1,3.11,4.83,4.83,0,0,1-.32,1.57,10.11,10.11,0,0,0,.88,9.23l1.52,2.67a7.4,7.4,0,0,1-1.17,8.85l-6.93,6.93a6.87,6.87,0,0,1-5.07,2.21h0a7.37,7.37,0,0,1-3.76-1l-2.89-1.73a10.3,10.3,0,0,0-5.38-1.48,10.47,10.47,0,0,0-4.12.84l-.69.29v.1a10.46,10.46,0,0,0-5.74,6.91l-.78,3.1a7.29,7.29,0,0,1-7,5.5Z" transform="translate(-449.44 -449.86)"/></svg>