<svg id="Layer_1" data-name="Layer 1" xmlns="http://www.w3.org/2000/svg" viewBox="0 0 156.12 156.12"><defs><style>.cls-1{fill:#00AEEF;}</style></defs><path class="cls-1" d="M101.43,0H9A9,9,0,0,0,0,9V147.1a9,9,0,0,0,9,9h92.41a9,9,0,0,0,9-9V9A9,9,0,0,0,101.43,0Zm3.16,9V147.1a3.18,3.18,0,0,1-3.16,3.17H9a3.18,3.18,0,0,1-3.17-3.17V9A3.17,3.17,0,0,1,9,5.85h92.41A3.17,3.17,0,0,1,104.59,9Z"/><path class="cls-1" d="M92.65,12.54H17.79a5,5,0,0,0-5,5.05V47.87a5,5,0,0,0,5,5.05H92.65a5.06,5.06,0,0,0,5.06-5.05V17.59A5.06,5.06,0,0,0,92.65,12.54Zm-.8,5.85V47.07H18.59V18.39Z"/><path class="cls-1" d="M32.73,64.14H16.05a2.59,2.59,0,0,0-2.59,2.59v16.6a2.6,2.6,0,0,0,2.59,2.59H32.73a2.61,2.61,0,0,0,2.6-2.59V66.73A2.6,2.6,0,0,0,32.73,64.14ZM18.64,80.73V69.32h11.5V80.73Z"/><path class="cls-1" d="M63.57,64.14H46.88a2.59,2.59,0,0,0-2.59,2.59v16.6a2.6,2.6,0,0,0,2.59,2.59H63.57a2.6,2.6,0,0,0,2.59-2.59V66.73A2.6,2.6,0,0,0,63.57,64.14ZM61,69.32V80.73H49.47V69.32Z"/><path class="cls-1" d="M95.11,64.14H78.43a2.59,2.59,0,0,0-2.59,2.59v16.6a2.6,2.6,0,0,0,2.59,2.59H95.11a2.61,2.61,0,0,0,2.6-2.59V66.73A2.6,2.6,0,0,0,95.11,64.14ZM81,80.73V69.32h11.5V80.73Z"/><path class="cls-1" d="M32.73,90.29H16.05a2.59,2.59,0,0,0-2.59,2.59v16.6a2.6,2.6,0,0,0,2.59,2.59H32.73a2.61,2.61,0,0,0,2.6-2.59V92.88A2.6,2.6,0,0,0,32.73,90.29Zm-14.09,16.6V95.47h11.5v11.42Z"/><path class="cls-1" d="M63.57,90.29H46.88a2.59,2.59,0,0,0-2.59,2.59v16.6a2.6,2.6,0,0,0,2.59,2.59H63.57a2.6,2.6,0,0,0,2.59-2.59V92.88A2.6,2.6,0,0,0,63.57,90.29ZM61,95.47v11.42H49.47V95.47Z"/><path class="cls-1" d="M95.11,90.29H78.43a2.59,2.59,0,0,0-2.59,2.59v16.6a2.6,2.6,0,0,0,2.59,2.59H95.11a2.61,2.61,0,0,0,2.6-2.59V92.88A2.6,2.6,0,0,0,95.11,90.29ZM81,106.89V95.47h11.5v11.42Z"/><path class="cls-1" d="M32.73,116.44H16.05A2.59,2.59,0,0,0,13.46,119v16.6a2.59,2.59,0,0,0,2.59,2.59H32.73a2.6,2.6,0,0,0,2.6-2.59V119A2.6,2.6,0,0,0,32.73,116.44ZM18.64,133V121.62h11.5V133Z"/><path class="cls-1" d="M63.57,116.44H46.88A2.59,2.59,0,0,0,44.29,119v16.6a2.59,2.59,0,0,0,2.59,2.59H63.57a2.6,2.6,0,0,0,2.59-2.59V119A2.6,2.6,0,0,0,63.57,116.44ZM61,121.62V133H49.47V121.62Z"/><path class="cls-1" d="M95.11,116.44H78.43A2.59,2.59,0,0,0,75.84,119v16.6a2.59,2.59,0,0,0,2.59,2.59H95.11a2.6,2.6,0,0,0,2.6-2.59V119A2.6,2.6,0,0,0,95.11,116.44ZM81,133V121.62h11.5V133Z"/><path class="cls-1" d="M154.43,15.76V9.91A9.93,9.93,0,0,0,144.52,0H134.25a9.93,9.93,0,0,0-9.92,9.91v5.85a2.88,2.88,0,0,0-1.68,2.61V126.14a12.09,12.09,0,0,0,1,4.82l8.94,20.67a7.41,7.41,0,0,0,13.61,0L155.12,131a12.1,12.1,0,0,0,1-4.82V18.37A2.88,2.88,0,0,0,154.43,15.76ZM130.18,9.91a4.07,4.07,0,0,1,4.07-4.06h10.27a4.06,4.06,0,0,1,4.06,4.06v5.53h-18.4ZM128.5,37h8v87.33h-8Zm17.79,99.67-2.94,6.78h0l-.76,1.78-.28.64h0l-1.49,3.45h0a1.57,1.57,0,0,1-2.87,0l-2.54-5.87h0l-3.34-7.73-2.4-5.54h19.42l-2.8,6.49Zm4-12.34h-8V37h8Zm0-93.19H128.5V21.3h21.77Z"/></svg>